<?xml version="1.0" encoding="utf-8"?>
<!-- Generator: Adobe Illustrator 15.1.0, SVG Export Plug-In . SVG Version: 6.00 Build 0)  -->
<!DOCTYPE svg PUBLIC "-//W3C//DTD SVG 1.1//EN" "http://www.w3.org/Graphics/SVG/1.1/DTD/svg11.dtd">
<svg version="1.1" id="Capa_1" xmlns="http://www.w3.org/2000/svg" xmlns:xlink="http://www.w3.org/1999/xlink" x="0px" y="0px"
	 width="833.39px" height="833.39px" viewBox="0 0 833.39 833.39" enable-background="new 0 0 833.39 833.39" xml:space="preserve">
<path fill="#FFFFFF" stroke="#000000" stroke-miterlimit="10" d="M643.467,643.465H189.923V189.922h453.544V643.465z
	 M600.947,232.442H232.443v368.503h368.504V232.442z"/>
<rect x="787" y="697.323" fill="#FFFFFF" stroke="#000000" stroke-miterlimit="10" width="46.389" height="56.693"/>
<rect y="697.323" fill="#FFFFFF" stroke="#000000" stroke-miterlimit="10" width="50" height="56.693"/>
<polyline fill="#FFFFFF" stroke="#000000" stroke-miterlimit="10" points="474.609,550.696 290.522,550.696 290.523,697.323 
	787,697.323 787,754.017 50,754.017 50,697.323 233.83,697.323 233.83,494.003 518.334,494.003 518.334,589.669 474.334,589.669 
	474.334,550.696 "/>
<g>
	<rect x="344.216" y="512.895" fill="none" stroke="#000000" stroke-miterlimit="10" width="144.567" height="102.047"/>
</g>
<g>
	<g>
	</g>
</g>
<line display="none" fill="none" stroke="#000000" stroke-miterlimit="10" x1="0.002" y1="833.388" x2="2.836" y2="833.388"/>
<line display="none" fill="none" stroke="#000000" stroke-miterlimit="10" x1="0.002" y1="833.388" x2="0.002" y2="830.553"/>
</svg>
