<?xml version="1.0" encoding="utf-8"?>
<!-- Generator: Adobe Illustrator 15.1.0, SVG Export Plug-In . SVG Version: 6.00 Build 0)  -->
<!DOCTYPE svg PUBLIC "-//W3C//DTD SVG 1.1//EN" "http://www.w3.org/Graphics/SVG/1.1/DTD/svg11.dtd">
<svg version="1.1" id="Capa_1" xmlns="http://www.w3.org/2000/svg" xmlns:xlink="http://www.w3.org/1999/xlink" x="0px" y="0px"
	 width="833.39px" height="833.39px" viewBox="0 0 833.39 833.39" enable-background="new 0 0 833.39 833.39" xml:space="preserve">
<rect x="787" y="697.323" fill="#FFFFFF" stroke="#000000" stroke-miterlimit="10" width="46.389" height="56.693"/>
<rect y="697.323" fill="#FFFFFF" stroke="#000000" stroke-miterlimit="10" width="50" height="56.693"/>
<polygon fill="#FFFFFF" stroke="#000000" stroke-miterlimit="10" points="529,512.898 529,638 444.846,655.985 444.846,697.323 
	787,697.323 787,754.017 50,754.017 50,697.323 388.153,697.323 388.153,648.724 303,645 301.409,512.856 "/>
<g>
	<rect x="344.216" y="512.895" fill="none" stroke="#000000" stroke-miterlimit="10" width="144.567" height="102.047"/>
</g>
<g>
	<g>
	</g>
</g>
<line fill="none" stroke="#000000" stroke-miterlimit="10" x1="0.002" y1="833.388" x2="2.836" y2="833.388"/>
<line fill="none" stroke="#000000" stroke-miterlimit="10" x1="0.002" y1="833.388" x2="0.002" y2="830.553"/>
<path fill="#FFFFFF" stroke="#000000" stroke-miterlimit="10" d="M699.964,416.693c0,156.553-126.911,283.465-283.465,283.465
	c-156.553,0-283.464-126.912-283.464-283.465c0-156.553,126.912-283.465,283.464-283.465
	C573.053,133.229,699.964,260.14,699.964,416.693z M416.499,175.749c-133.07,0-240.945,107.875-240.945,240.945
	s107.875,240.945,240.945,240.945c133.07,0,240.945-107.875,240.945-240.945S549.569,175.749,416.499,175.749z"/>
</svg>
