<?xml version="1.0" encoding="utf-8"?>
<!-- Generator: Adobe Illustrator 15.1.0, SVG Export Plug-In . SVG Version: 6.00 Build 0)  -->
<!DOCTYPE svg PUBLIC "-//W3C//DTD SVG 1.1//EN" "http://www.w3.org/Graphics/SVG/1.1/DTD/svg11.dtd">
<svg version="1.1" id="Capa_1" xmlns="http://www.w3.org/2000/svg" xmlns:xlink="http://www.w3.org/1999/xlink" x="0px" y="0px"
	 width="833.39px" height="833.39px" viewBox="0 0 833.39 833.39" enable-background="new 0 0 833.39 833.39" xml:space="preserve">
<path fill="#FFFFFF" stroke="#000000" stroke-miterlimit="10" d="M737.398,416.693L416.695,737.396L95.992,416.694L416.695,95.99
	L737.398,416.693z M416.695,156.122L156.124,416.693l260.571,260.571l260.573-260.572L416.695,156.122z"/>
<rect x="787" y="697.323" fill="#FFFFFF" stroke="#000000" stroke-miterlimit="10" width="46.389" height="56.693"/>
<rect y="697.323" fill="#FFFFFF" stroke="#000000" stroke-miterlimit="10" width="50" height="56.693"/>
<polygon fill="#FFFFFF" stroke="#000000" stroke-miterlimit="10" points="479.019,614.941 444.846,647.877 444.846,697.323 
	787,697.323 787,754.017 50,754.017 50,697.323 388.153,697.323 388.153,648.724 354.332,614.902 "/>
<g>
	<rect x="344.216" y="512.895" fill="none" stroke="#000000" stroke-miterlimit="10" width="144.567" height="102.047"/>
</g>
<g>
	<g>
	</g>
</g>
<line fill="none" stroke="#000000" stroke-miterlimit="10" x1="0.002" y1="833.388" x2="2.836" y2="833.388"/>
<line fill="none" stroke="#000000" stroke-miterlimit="10" x1="0.002" y1="833.388" x2="0.002" y2="830.553"/>
</svg>
